# xmcd CD database file
#
# Track frame offsets:
#	150
#	17840
#	35412
#
# Disc length: 704 seconds
#
# Revision: 2
# Processed by: cddbd v1.5.1PL0 Copyright (c) Steve Scherf et al.
# Submitted via: CDex 1.51
#
DISCID=1b02be03
DTITLE=THC!! - 夏の夕暮れ
DYEAR=2005
DGENRE=Pop
TTITLE0=夏の夕暮れ
TTITLE1=夏のルールで。
TTITLE2=夏の夕暮れ (Instrumental)
EXTD=YEAR: 2005/06/08
EXTT0=
EXTT1=
EXTT2=
PLAYORDER=
